/* XPM */
static const char * zero_xpm[] = {
"11 15 3 1",
" 	c None",
".	c #FFFFFF",
"+	c #FEFEFE",
"           ",
"           ",
"   ....+   ",
"   .   .   ",
"  ..   ..  ",
"  ..   ..  ",
"  .+   +.  ",
"  .+   +.  ",
"  .+   +.  ",
"  ..   ..  ",
"  ..   ..  ",
"   .   .   ",
"   ....+   ",
"           ",
"           "};
