/* XPM */
static const char * one_xpm[] = {
"8 15 2 1",
" 	c None",
".	c #FFFFFF",
"        ",
"        ",
"     .  ",
"    ..  ",
"  ....  ",
"  . ..  ",
"    ..  ",
"    ..  ",
"    ..  ",
"    ..  ",
"    ..  ",
"    ..  ",
"    ..  ",
"        ",
"        "};
