/* XPM */
static const char * one_rtc_xpm[] = {
"21 40 2 1",
" 	c None",
".	c #FFFFFF",
"                     ",
"                     ",
"                     ",
"                     ",
"                     ",
"              .      ",
"             ...     ",
"             ...     ",
"           .....     ",
"          ......     ",
"         .......     ",
"     ...........     ",
"     ...........     ",
"     .... ......     ",
"     ...   .....     ",
"     ..    .....     ",
"           .....     ",
"          ......     ",
"          ......     ",
"          ......     ",
"          ......     ",
"          ......     ",
"          ......     ",
"          ......     ",
"          ......     ",
"          ......     ",
"          ......     ",
"          ......     ",
"          ......     ",
"          ......     ",
"          ......     ",
"          ......     ",
"          ......     ",
"           .....     ",
"           ....      ",
"                     ",
"                     ",
"                     ",
"                     ",
"                     "};
