/* XPM */
static const char * two_xpm[] = {
"12 15 3 1",
" 	c None",
".	c #FFFFFF",
"+	c #FEFEFE",
"            ",
"            ",
"   ......   ",
"   .    .   ",
"   .    .+  ",
"        .+  ",
"        .   ",
"       ..   ",
"     ...    ",
"    ...     ",
"   ..       ",
"   . +++++  ",
"  .......+  ",
"            ",
"            "};
