/* XPM */
static const char * four_rtc_xpm[] = {
"32 40 3 1",
" 	c None",
".	c #FFFFFF",
"+	c #FEFEFE",
"                                ",
"                                ",
"                                ",
"                                ",
"                                ",
"                   ..           ",
"                   ..           ",
"                  ....          ",
"                 ....           ",
"                .....           ",
"               ......           ",
"              .......           ",
"             ........           ",
"             .... ...           ",
"             ...   ..           ",
"             ...   ..           ",
"           ...     ..           ",
"          ...      ..           ",
"          ...      ..           ",
"        ...        ..           ",
"        ...        ..           ",
"      .....        ..           ",
"     ......        ..           ",
"     ......       ....          ",
"     .....................      ",
"     ......................     ",
"     ......................     ",
"     ...........   .....+++     ",
"     ...........   .....+++     ",
"                   ...          ",
"                   ...          ",
"                  ...           ",
"                  ...           ",
"                   ..           ",
"                   ..           ",
"                                ",
"                                ",
"                                ",
"                                ",
"                                "};
