/* XPM */
static const char * five_rtc_xpm[] = {
"29 40 3 1",
" 	c None",
".	c #FFFFFF",
"+	c #FEFEFE",
"                             ",
"                             ",
"                             ",
"                             ",
"                             ",
"         ..............      ",
"        ................     ",
"        ...............      ",
"        ...++++++++++.       ",
"        ...++++++++++        ",
"       ....+++++++++         ",
"     ......                  ",
"     .....                   ",
"     .....    ...            ",
"     .....   .....           ",
"     ......  ......          ",
"     ................        ",
"     ................        ",
"     .................       ",
"     ......       ......     ",
"     .....         .....     ",
"                   .....     ",
"                  ......     ",
"                  ......     ",
"                  +++...     ",
"                  +++...     ",
"                  ++....     ",
"     .....        ......     ",
"     ......       ......     ",
"     ......       ....       ",
"     ......       ...        ",
"      .....       ...        ",
"       ............          ",
"        ..........           ",
"         .........           ",
"                             ",
"                             ",
"                             ",
"                             ",
"                             "};
