/* XPM */
static const char * six_xpm[] = {
"11 15 2 1",
" 	c None",
".	c #FFFFFF",
"           ",
"           ",
"    ....   ",
"   .   ..  ",
"  ..    .  ",
"  ..       ",
"  ......   ",
"  ..   ..  ",
"  ..   ..  ",
"  ..   ..  ",
"  ..   ..  ",
"   .   ..  ",
"    ....   ",
"           ",
"           "};
