/* XPM */
static const char * six_rtc_xpm[] = {
"29 40 2 1",
" 	c None",
".	c #FFFFFF",
"                             ",
"                             ",
"                             ",
"                             ",
"                             ",
"           .........         ",
"           ..........        ",
"          ............       ",
"        ...       .....      ",
"        ...        .....     ",
"       ....        .....     ",
"     ......          ...     ",
"     ......          ...     ",
"     .....                   ",
"     ......                  ",
"     ......                  ",
"     ................        ",
"     ................        ",
"     .................       ",
"     ......       ......     ",
"     .....         .....     ",
"     .....         .....     ",
"     ......       ......     ",
"     ......       ......     ",
"     ......       ......     ",
"     ......       ......     ",
"     ......       ......     ",
"     ......       ......     ",
"     ......       ......     ",
"       ....        .....     ",
"        ...       ......     ",
"        ...       .....      ",
"          ............       ",
"           ..........        ",
"           .........         ",
"                             ",
"                             ",
"                             ",
"                             ",
"                             "};
