/* XPM */
static const char * seven_xpm[] = {
"11 15 2 1",
" 	c None",
".	c #FFFFFF",
"           ",
"           ",
"  .......  ",
"  .......  ",
"      ..   ",
"      .    ",
"     ..    ",
"     .     ",
"    ..     ",
"    ..     ",
"    .      ",
"   ..      ",
"   ..      ",
"           ",
"           "};
