/* XPM */
static const char * b_xpm[] = {
"11 11 97 2",
"  	c None",
". 	c #ED554C",
"+ 	c #EC544A",
"@ 	c #E9473E",
"# 	c #E53F36",
"$ 	c #E23E36",
"% 	c #EA4A41",
"& 	c #ED6F63",
"* 	c #EF9488",
"= 	c #E6483D",
"- 	c #E0241A",
"; 	c #DD271D",
"> 	c #D7332B",
", 	c #E63F37",
"' 	c #E63A30",
") 	c #EA7267",
"! 	c #EC8E83",
"~ 	c #E03F35",
"{ 	c #DA180F",
"] 	c #D4150C",
"^ 	c #CE1A11",
"/ 	c #C72F29",
"( 	c #DD3D35",
"_ 	c #E02F25",
": 	c #DE291E",
"< 	c #DD2A20",
"[ 	c #DA2B21",
"} 	c #D6251C",
"| 	c #D0180F",
"1 	c #CA1109",
"2 	c #C21108",
"3 	c #B91F17",
"4 	c #B0312D",
"5 	c #D73831",
"6 	c #D82217",
"7 	c #D71E13",
"8 	c #D41B10",
"9 	c #D22F29",
"0 	c #D45452",
"a 	c #C52019",
"b 	c #BD130B",
"c 	c #B31008",
"d 	c #A9130D",
"e 	c #A42D2A",
"f 	c #CD332D",
"g 	c #CD180D",
"h 	c #CB190F",
"i 	c #C7170E",
"j 	c #C31C14",
"k 	c #BD211B",
"l 	c #B5150D",
"m 	c #AD0F08",
"n 	c #A30F07",
"o 	c #991208",
"p 	c #97302E",
"q 	c #BF2F29",
"r 	c #BB130B",
"s 	c #B80E06",
"t 	c #B70E06",
"u 	c #B00E05",
"v 	c #AB0D05",
"w 	c #A40C05",
"x 	c #9D0C04",
"y 	c #920B03",
"z 	c #8B120A",
"A 	c #902C28",
"B 	c #B4312C",
"C 	c #AB1A13",
"D 	c #A60B03",
"E 	c #A30B03",
"F 	c #A00B03",
"G 	c #9A0A02",
"H 	c #920A02",
"I 	c #8D0A02",
"J 	c #850A02",
"K 	c #851711",
"L 	c #8D2D29",
"M 	c #A02924",
"N 	c #99140C",
"O 	c #970E05",
"P 	c #930C04",
"Q 	c #8D0B03",
"R 	c #870902",
"S 	c #840A02",
"T 	c #811109",
"U 	c #862420",
"V 	c #962824",
"W 	c #911C15",
"X 	c #860F06",
"Y 	c #811007",
"Z 	c #81160F",
"` 	c #81211D",
" .	c #8E2B27",
"..	c #892521",
"+.	c #85221D",
"@.	c #82201D",
"#.	c #82211D",
"      . + @ # $       ",
"    % & * = - ; >     ",
"  , ' ) ! ~ { ] ^ /   ",
"( _ : < [ } | 1 2 3 4 ",
"5 6 7 8 9 0 a b c d e ",
"f g h i j k l m n o p ",
"q r s t u v w x y z A ",
"B C D E F G H I J K L ",
"  M N O P Q R S T U   ",
"    V W z X Y Z `     ",
"       ...+.@.#.      "};
