/* XPM */
static const char * colon_xpm[] = {
"7 15 3 1",
" 	c None",
".	c #FFFFFF",
"+	c #FEFEFE",
"       ",
"       ",
"   .   ",
"   .   ",
"       ",
"       ",
"       ",
"       ",
"       ",
"       ",
"   +   ",
"   .   ",
"   .   ",
"       ",
"       "};
