/* XPM */
static const char * colon_rtc_xpm[] = {
"19 40 3 1",
" 	c None",
".	c #FFFFFF",
"+	c #FEFEFE",
"                   ",
"                   ",
"                   ",
"                   ",
"                   ",
"         .         ",
"        ...        ",
"        ...        ",
"        ...        ",
"        ...        ",
"         .         ",
"                   ",
"                   ",
"                   ",
"                   ",
"                   ",
"                   ",
"                   ",
"                   ",
"                   ",
"                   ",
"                   ",
"                   ",
"                   ",
"                   ",
"                   ",
"                   ",
"        +++        ",
"        +++        ",
"        ...        ",
"        ...        ",
"        ...        ",
"        ...        ",
"        ...        ",
"         .         ",
"                   ",
"                   ",
"                   ",
"                   ",
"                   "};
