/* XPM */
static const char * cursor_xpm[] = {
"40 40 2 1",
" 	c None",
".	c #FFFFFF",
"....                                    ",
".....                                   ",
".........                               ",
"..........                              ",
" ............                           ",
"  ............                          ",
"  ....  ..........                      ",
"  ....  ..........                      ",
"  ......    ..........                  ",
"   .....      .........                 ",
"    ....        ..........              ",
"    ....          .........             ",
"    .....            ..........         ",
"     .....            ..........        ",
"      ....               ..........     ",
"      ....                 ..........   ",
"      .....                  ...........",
"      ......                 ...........",
"        ....       .....................",
"        ....      ......................",
"        ....      ................      ",
"        .....     ...........           ",
"         .....    ....                  ",
"          ....    ....                  ",
"          ....    ....                  ",
"          .....   ....                  ",
"           ....   ....                  ",
"            ....  ....                  ",
"            ....  ....                  ",
"            ..........                  ",
"            .........                   ",
"             ........                   ",
"              .......                   ",
"              .......                   ",
"              ......                    ",
"               .....                    ",
"               .....                    ",
"                ....                    ",
"                ....                    ",
"                ....                    "};
