/* XPM */
static const char * slash_xpm[] = {
"21 40 2 1",
" 	c None",
".	c #FFFFFF",
"                     ",
"                     ",
"                     ",
"                     ",
"                     ",
"              .      ",
"             ...     ",
"             ...     ",
"             ...     ",
"             ...     ",
"            ...      ",
"           ..        ",
"          ...        ",
"          ...        ",
"          ...        ",
"          ...        ",
"          ...        ",
"          ...        ",
"         ....        ",
"        .....        ",
"        .....        ",
"        ....         ",
"        ...          ",
"        ...          ",
"        ...          ",
"        ...          ",
"        ...          ",
"        ...          ",
"        ..           ",
"      ...            ",
"     ...             ",
"     ...             ",
"     ...             ",
"     ...             ",
"      .              ",
"                     ",
"                     ",
"                     ",
"                     ",
"                     "};
