/* XPM */
static const char * star3_xpm[] = {
"14 13 7 1",
" 	c None",
".	c #463A00",
"+	c #826C00",
"@	c #FFD400",
"#	c #907800",
"$	c #BF9F00",
"%	c #5C4D00",
"              ",
"      .+      ",
"      @@      ",
"      @@      ",
"     #@@$     ",
" @@@@@@@@@@@@ ",
"  @@@@@@@@@@  ",
"    @@@@@@    ",
"    @@@@@@    ",
"    @@@@@@    ",
"   %@@  @@#   ",
"   @@    @@   ",
"              "};
