/* XPM */
static const char * star2_xpm[] = {
"14 13 17 1",
" 	c None",
".	c #4C4C4C",
"+	c #8B8B8B",
"@	c #F7F7F7",
"#	c #F5F5F5",
"$	c #909090",
"%	c #F6F6F6",
"&	c #FAFAFA",
"*	c #BEBEBE",
"=	c #F9F9F9",
"-	c #FFFFFF",
";	c #FCFCFC",
">	c #F8F8F8",
",	c #FDFDFD",
"'	c #FBFBFB",
")	c #676767",
"!	c #F4F4F4",
"              ",
"      .+      ",
"      @#      ",
"      ##      ",
"     $%&*     ",
" &=%%%#-&;--& ",
"  ---%->,,-'  ",
"    >'-,&&    ",
"    ',-=--    ",
"    '%->'-    ",
"   )#@  ==$   ",
"   #!    %=   ",
"              "};
